<svg width="274" height="148" viewBox="0 0 274 148" fill="none" xmlns="http://www.w3.org/2000/svg">
<g filter="url(#filter0_d_1126_371)">
<circle cx="74" cy="50" r="24" fill="white"/>
</g>
<path d="M66.5797 58.3297V41.6703C66.5797 40.9508 67.3742 40.5172 67.9789 40.9039L81.0008 49.2336C81.561 49.5922 81.561 50.4078 81.0008 50.7664L67.9789 59.0961C67.3742 59.4828 66.5797 59.0492 66.5797 58.3297Z" fill="#264065"/>
<path d="M66.9312 58.3297C66.9312 58.0016 66.9312 57.6711 66.9312 57.343C66.9312 56.5062 66.9312 55.6695 66.9312 54.8328C66.9312 53.6961 66.9312 52.5594 66.9312 51.425C66.9312 50.2062 66.9312 48.9875 66.9312 47.7664C66.9312 46.6789 66.9312 45.5914 66.9312 44.5016C66.9312 43.7586 66.9312 43.018 66.9312 42.275C66.9312 42.1016 66.9312 41.9258 66.9312 41.7523C66.9312 41.7266 66.9312 41.6984 66.9312 41.6726C66.9312 41.6609 66.9312 41.6562 66.9312 41.6398C66.9312 41.6187 66.9336 41.6 66.9359 41.5789C66.9312 41.6539 66.9336 41.5906 66.9383 41.5695C66.95 41.5273 66.9617 41.4851 66.9734 41.4453C66.95 41.5156 66.9664 41.457 66.9781 41.4383C66.9945 41.4101 67.0086 41.382 67.0273 41.3539C67.0367 41.3375 67.0484 41.3234 67.0578 41.3094C67.0156 41.368 67.0437 41.3281 67.0555 41.3164C67.0883 41.2836 67.1187 41.2531 67.1539 41.2226C67.0976 41.2719 67.1398 41.232 67.1586 41.2203C67.1773 41.2086 67.1961 41.1969 67.2172 41.1851C67.2336 41.1758 67.25 41.1687 67.2664 41.1594C67.3344 41.1219 67.2148 41.1734 67.2828 41.1523C67.3273 41.1406 67.3695 41.1266 67.4141 41.1172C67.4937 41.0961 67.3672 41.1101 67.4164 41.1172C67.4375 41.1195 67.4633 41.1148 67.4844 41.1148C67.5031 41.1148 67.5219 41.1148 67.5406 41.1172C67.5453 41.1172 67.632 41.1336 67.5781 41.1195C67.5219 41.1055 67.6133 41.1289 67.6156 41.1289C67.6437 41.1359 67.6719 41.1453 67.6976 41.1547C67.7586 41.1734 67.7094 41.1594 67.6953 41.1523C67.7234 41.1664 67.7492 41.1805 67.775 41.1945C67.7844 41.1992 67.7937 41.2062 67.8008 41.2109C67.8031 41.2133 67.8055 41.2133 67.8078 41.2156C67.8406 41.2367 67.8758 41.2578 67.9086 41.2789C68.0844 41.3914 68.2578 41.5016 68.4336 41.6141C69.1156 42.05 69.8 42.4883 70.482 42.9242C71.443 43.5406 72.4062 44.1547 73.3672 44.7711C74.3867 45.4226 75.4062 46.0766 76.4281 46.7281C77.307 47.2906 78.1836 47.8508 79.0625 48.4133C79.5851 48.7484 80.1078 49.0836 80.6328 49.4164C80.6844 49.4492 80.7336 49.482 80.7851 49.5125C80.7969 49.5195 80.8086 49.5266 80.8203 49.5336C80.8226 49.5336 80.825 49.5359 80.825 49.5359C80.8414 49.5476 80.8601 49.5594 80.8766 49.5711C80.8226 49.5289 80.8742 49.5711 80.8859 49.5828C80.9094 49.6086 80.9328 49.632 80.9562 49.6555C80.9703 49.6695 80.9844 49.707 80.9539 49.6531C80.9633 49.6695 80.975 49.6836 80.9844 49.7C80.9984 49.7234 81.0101 49.7492 81.0242 49.775C81.0336 49.7937 81.0406 49.8336 81.0219 49.768C81.0359 49.8125 81.05 49.8547 81.0617 49.9016C81.0664 49.9203 81.0687 49.9367 81.0711 49.9555C81.057 49.8664 81.0687 49.9508 81.0687 49.9719C81.0687 49.9976 81.057 50.1359 81.0711 50.0422C81.0641 50.0867 81.0547 50.1336 81.0406 50.1758C81.0359 50.1945 81.0289 50.2109 81.0219 50.2273C81.0453 50.1547 81.0289 50.2133 81.0172 50.232C81.0055 50.2531 80.9961 50.2742 80.982 50.293C80.975 50.3023 80.9211 50.3773 80.9703 50.3141C80.9398 50.3516 80.9047 50.3844 80.8695 50.4195C80.8601 50.4289 80.818 50.4617 80.8695 50.4219C80.8508 50.4359 80.8391 50.443 80.818 50.457C80.8156 50.457 80.8156 50.4594 80.8133 50.4594C80.8039 50.4664 80.7922 50.4734 80.7828 50.4781C80.3844 50.7336 79.9859 50.9867 79.5875 51.2422C78.7836 51.7555 77.9797 52.2711 77.1758 52.7844C76.1656 53.4289 75.1578 54.0758 74.1476 54.7203C73.1562 55.3555 72.1625 55.9906 71.1711 56.6258C70.3953 57.1226 69.6195 57.6195 68.8437 58.1141C68.4969 58.3367 68.1523 58.5617 67.8031 58.7797C67.7656 58.8031 67.7281 58.8242 67.6883 58.8453C67.7469 58.8148 67.7047 58.8383 67.6906 58.843C67.6672 58.85 67.6437 58.857 67.6203 58.8641C67.5969 58.8711 67.5734 58.8734 67.55 58.8805C67.6133 58.8617 67.5851 58.8781 67.5594 58.8781C67.5125 58.8805 67.468 58.8805 67.4211 58.8781C67.3555 58.8758 67.4187 58.8781 67.4328 58.8805C67.407 58.8758 67.3789 58.8711 67.3531 58.8641C67.3297 58.8594 67.2289 58.8219 67.2664 58.8383C67.3039 58.8547 67.2055 58.8055 67.1867 58.7937C67.168 58.782 67.1492 58.7656 67.1305 58.7562C67.0859 58.7351 67.1844 58.8101 67.1258 58.7516C67.093 58.7187 67.0601 58.6883 67.0297 58.6531C67.0789 58.707 67.0203 58.6367 67.0039 58.6133C66.9898 58.5898 66.9781 58.5641 66.9641 58.5406C66.9547 58.5219 66.95 58.4844 66.9664 58.5476C66.9547 58.5008 66.9383 58.4562 66.9266 58.4094C66.9219 58.3906 66.9242 58.3461 66.9266 58.4141C66.9336 58.3906 66.9312 58.3601 66.9312 58.3297C66.9289 58.1469 66.7719 57.9687 66.5797 57.9781C66.3922 57.9875 66.2258 58.1328 66.2281 58.3297C66.2351 58.7937 66.4883 59.2414 66.9125 59.45C67.3133 59.6469 67.7773 59.6351 68.1594 59.3984C68.2461 59.3445 68.3328 59.2883 68.4172 59.232C68.9867 58.8687 69.5562 58.5031 70.1258 58.1398C71.0422 57.5539 71.9586 56.968 72.875 56.382C73.9133 55.7164 74.9539 55.0531 75.9922 54.3875C76.9391 53.7828 77.8859 53.1758 78.8328 52.5711C79.4703 52.1633 80.1101 51.7555 80.7476 51.3453C80.8812 51.2609 81.0148 51.1742 81.1484 51.0898C81.275 51.0078 81.3945 50.9141 81.4883 50.7945C81.7953 50.4078 81.8516 49.8945 81.643 49.4469C81.514 49.1726 81.2844 48.9992 81.0406 48.8422C80.8531 48.7226 80.6633 48.6008 80.4758 48.4812C79.7609 48.0242 79.0461 47.5672 78.3336 47.1101C77.3492 46.4797 76.3625 45.8492 75.3781 45.2187C74.3422 44.5578 73.3086 43.8945 72.2726 43.2336C71.4078 42.6805 70.543 42.1273 69.6781 41.5742C69.2047 41.2719 68.7336 40.9695 68.2601 40.6672C67.9391 40.4609 67.5828 40.3555 67.1984 40.4422C66.6055 40.5758 66.2281 41.1219 66.2258 41.7125C66.2258 42.1695 66.2258 42.6242 66.2258 43.0812C66.2258 44.0187 66.2258 44.9562 66.2258 45.8937C66.2258 47.0844 66.2258 48.2726 66.2258 49.4633C66.2258 50.6844 66.2258 51.9078 66.2258 53.1289C66.2258 54.1625 66.2258 55.1961 66.2258 56.232C66.2258 56.8508 66.2258 57.4672 66.2258 58.0859C66.2258 58.168 66.2258 58.25 66.2258 58.3344C66.2258 58.5172 66.3875 58.6953 66.5773 58.6859C66.7695 58.6719 66.9312 58.5266 66.9312 58.3297Z" fill="#264065"/>
<path d="M131.154 43.954L127.518 56.5H125.682L122.766 46.402L119.742 56.5L117.924 56.518L114.414 43.954H116.16L118.896 54.592L121.92 43.954H123.756L126.636 54.556L129.39 43.954H131.154ZM132.335 51.532C132.335 50.524 132.539 49.642 132.947 48.886C133.355 48.118 133.913 47.524 134.621 47.104C135.341 46.684 136.139 46.474 137.015 46.474C137.879 46.474 138.629 46.66 139.265 47.032C139.901 47.404 140.375 47.872 140.687 48.436V46.636H142.343V56.5H140.687V54.664C140.363 55.24 139.877 55.72 139.229 56.104C138.593 56.476 137.849 56.662 136.997 56.662C136.121 56.662 135.329 56.446 134.621 56.014C133.913 55.582 133.355 54.976 132.947 54.196C132.539 53.416 132.335 52.528 132.335 51.532ZM140.687 51.55C140.687 50.806 140.537 50.158 140.237 49.606C139.937 49.054 139.529 48.634 139.013 48.346C138.509 48.046 137.951 47.896 137.339 47.896C136.727 47.896 136.169 48.04 135.665 48.328C135.161 48.616 134.759 49.036 134.459 49.588C134.159 50.14 134.009 50.788 134.009 51.532C134.009 52.288 134.159 52.948 134.459 53.512C134.759 54.064 135.161 54.49 135.665 54.79C136.169 55.078 136.727 55.222 137.339 55.222C137.951 55.222 138.509 55.078 139.013 54.79C139.529 54.49 139.937 54.064 140.237 53.512C140.537 52.948 140.687 52.294 140.687 51.55ZM147.109 47.986V53.8C147.109 54.28 147.211 54.622 147.415 54.826C147.619 55.018 147.973 55.114 148.477 55.114H149.683V56.5H148.207C147.295 56.5 146.611 56.29 146.155 55.87C145.699 55.45 145.471 54.76 145.471 53.8V47.986H144.193V46.636H145.471V44.152H147.109V46.636H149.683V47.986H147.109ZM151.055 51.55C151.055 50.53 151.259 49.642 151.667 48.886C152.075 48.118 152.639 47.524 153.359 47.104C154.091 46.684 154.925 46.474 155.861 46.474C157.073 46.474 158.069 46.768 158.849 47.356C159.641 47.944 160.163 48.76 160.415 49.804H158.651C158.483 49.204 158.153 48.73 157.661 48.382C157.181 48.034 156.581 47.86 155.861 47.86C154.925 47.86 154.169 48.184 153.593 48.832C153.017 49.468 152.729 50.374 152.729 51.55C152.729 52.738 153.017 53.656 153.593 54.304C154.169 54.952 154.925 55.276 155.861 55.276C156.581 55.276 157.181 55.108 157.661 54.772C158.141 54.436 158.471 53.956 158.651 53.332H160.415C160.151 54.34 159.623 55.15 158.831 55.762C158.039 56.362 157.049 56.662 155.861 56.662C154.925 56.662 154.091 56.452 153.359 56.032C152.639 55.612 152.075 55.018 151.667 54.25C151.259 53.482 151.055 52.582 151.055 51.55ZM167.497 46.456C168.241 46.456 168.913 46.618 169.513 46.942C170.113 47.254 170.581 47.728 170.917 48.364C171.265 49 171.439 49.774 171.439 50.686V56.5H169.819V50.92C169.819 49.936 169.573 49.186 169.081 48.67C168.589 48.142 167.917 47.878 167.065 47.878C166.201 47.878 165.511 48.148 164.995 48.688C164.491 49.228 164.239 50.014 164.239 51.046V56.5H162.601V43.18H164.239V48.04C164.563 47.536 165.007 47.146 165.571 46.87C166.147 46.594 166.789 46.456 167.497 46.456ZM189.281 43.954L184.547 56.5H182.657L177.923 43.954H179.669L183.611 54.772L187.553 43.954H189.281ZM191.923 45.034C191.611 45.034 191.347 44.926 191.131 44.71C190.915 44.494 190.807 44.23 190.807 43.918C190.807 43.606 190.915 43.342 191.131 43.126C191.347 42.91 191.611 42.802 191.923 42.802C192.223 42.802 192.475 42.91 192.679 43.126C192.895 43.342 193.003 43.606 193.003 43.918C193.003 44.23 192.895 44.494 192.679 44.71C192.475 44.926 192.223 45.034 191.923 45.034ZM192.715 46.636V56.5H191.077V46.636H192.715ZM194.895 51.532C194.895 50.524 195.099 49.642 195.507 48.886C195.915 48.118 196.473 47.524 197.181 47.104C197.901 46.684 198.705 46.474 199.593 46.474C200.361 46.474 201.075 46.654 201.735 47.014C202.395 47.362 202.899 47.824 203.247 48.4V43.18H204.903V56.5H203.247V54.646C202.923 55.234 202.443 55.72 201.807 56.104C201.171 56.476 200.427 56.662 199.575 56.662C198.699 56.662 197.901 56.446 197.181 56.014C196.473 55.582 195.915 54.976 195.507 54.196C195.099 53.416 194.895 52.528 194.895 51.532ZM203.247 51.55C203.247 50.806 203.097 50.158 202.797 49.606C202.497 49.054 202.089 48.634 201.573 48.346C201.069 48.046 200.511 47.896 199.899 47.896C199.287 47.896 198.729 48.04 198.225 48.328C197.721 48.616 197.319 49.036 197.019 49.588C196.719 50.14 196.569 50.788 196.569 51.532C196.569 52.288 196.719 52.948 197.019 53.512C197.319 54.064 197.721 54.49 198.225 54.79C198.729 55.078 199.287 55.222 199.899 55.222C200.511 55.222 201.069 55.078 201.573 54.79C202.089 54.49 202.497 54.064 202.797 53.512C203.097 52.948 203.247 52.294 203.247 51.55ZM216.671 51.19C216.671 51.502 216.653 51.832 216.617 52.18H208.733C208.793 53.152 209.123 53.914 209.723 54.466C210.335 55.006 211.073 55.276 211.937 55.276C212.645 55.276 213.233 55.114 213.701 54.79C214.181 54.454 214.517 54.01 214.709 53.458H216.473C216.209 54.406 215.681 55.18 214.889 55.78C214.097 56.368 213.113 56.662 211.937 56.662C211.001 56.662 210.161 56.452 209.417 56.032C208.685 55.612 208.109 55.018 207.689 54.25C207.269 53.47 207.059 52.57 207.059 51.55C207.059 50.53 207.263 49.636 207.671 48.868C208.079 48.1 208.649 47.512 209.381 47.104C210.125 46.684 210.977 46.474 211.937 46.474C212.873 46.474 213.701 46.678 214.421 47.086C215.141 47.494 215.693 48.058 216.077 48.778C216.473 49.486 216.671 50.29 216.671 51.19ZM214.979 50.848C214.979 50.224 214.841 49.69 214.565 49.246C214.289 48.79 213.911 48.448 213.431 48.22C212.963 47.98 212.441 47.86 211.865 47.86C211.037 47.86 210.329 48.124 209.741 48.652C209.165 49.18 208.835 49.912 208.751 50.848H214.979ZM223.135 56.662C222.211 56.662 221.371 56.452 220.615 56.032C219.871 55.612 219.283 55.018 218.851 54.25C218.431 53.47 218.221 52.57 218.221 51.55C218.221 50.542 218.437 49.654 218.869 48.886C219.313 48.106 219.913 47.512 220.669 47.104C221.425 46.684 222.271 46.474 223.207 46.474C224.143 46.474 224.989 46.684 225.745 47.104C226.501 47.512 227.095 48.1 227.527 48.868C227.971 49.636 228.193 50.53 228.193 51.55C228.193 52.57 227.965 53.47 227.509 54.25C227.065 55.018 226.459 55.612 225.691 56.032C224.923 56.452 224.071 56.662 223.135 56.662ZM223.135 55.222C223.723 55.222 224.275 55.084 224.791 54.808C225.307 54.532 225.721 54.118 226.033 53.566C226.357 53.014 226.519 52.342 226.519 51.55C226.519 50.758 226.363 50.086 226.051 49.534C225.739 48.982 225.331 48.574 224.827 48.31C224.323 48.034 223.777 47.896 223.189 47.896C222.589 47.896 222.037 48.034 221.533 48.31C221.041 48.574 220.645 48.982 220.345 49.534C220.045 50.086 219.895 50.758 219.895 51.55C219.895 52.354 220.039 53.032 220.327 53.584C220.627 54.136 221.023 54.55 221.515 54.826C222.007 55.09 222.547 55.222 223.135 55.222Z" fill="#264065"/>
<defs>
<filter id="filter0_d_1126_371" x="0" y="0" width="148" height="148" filterUnits="userSpaceOnUse" color-interpolation-filters="sRGB">
<feFlood flood-opacity="0" result="BackgroundImageFix"/>
<feColorMatrix in="SourceAlpha" type="matrix" values="0 0 0 0 0 0 0 0 0 0 0 0 0 0 0 0 0 0 127 0" result="hardAlpha"/>
<feOffset dy="24"/>
<feGaussianBlur stdDeviation="25"/>
<feComposite in2="hardAlpha" operator="out"/>
<feColorMatrix type="matrix" values="0 0 0 0 0 0 0 0 0 0 0 0 0 0 0 0 0 0 0.15 0"/>
<feBlend mode="normal" in2="BackgroundImageFix" result="effect1_dropShadow_1126_371"/>
<feBlend mode="normal" in="SourceGraphic" in2="effect1_dropShadow_1126_371" result="shape"/>
</filter>
</defs>
</svg>
